<svg width="24" height="24" viewBox="0 0 24 24" fill="none" xmlns="http://www.w3.org/2000/svg">
<path d="M12 5.5L11.46 6.02L11.47 6.031L12 5.5ZM13.47 8.03C13.5387 8.10369 13.6215 8.16279 13.7135 8.20378C13.8055 8.24478 13.9048 8.26682 14.0055 8.26859C14.1062 8.27037 14.2062 8.25185 14.2996 8.21412C14.393 8.1764 14.4778 8.12026 14.549 8.04904C14.6203 7.97782 14.6764 7.89299 14.7141 7.7996C14.7518 7.70621 14.7704 7.60618 14.7686 7.50548C14.7668 7.40478 14.7448 7.30546 14.7038 7.21346C14.6628 7.12146 14.6037 7.03866 14.53 6.97L13.47 8.03ZM9.426 18.322C7.91 17.127 6.253 15.96 4.938 14.48C3.65 13.028 2.75 11.335 2.75 9.137H1.25C1.25 11.803 2.36 13.837 3.817 15.476C5.247 17.086 7.071 18.376 8.497 19.5L9.426 18.322ZM2.75 9.137C2.75 6.987 3.965 5.183 5.624 4.424C7.236 3.687 9.402 3.882 11.46 6.02L12.54 4.981C10.1 2.444 7.264 2.025 5 3.06C2.786 4.073 1.25 6.425 1.25 9.137H2.75ZM8.497 19.5C9.01 19.904 9.56 20.334 10.117 20.66C10.674 20.986 11.31 21.25 12 21.25V19.75C11.69 19.75 11.326 19.63 10.874 19.365C10.421 19.101 9.952 18.737 9.426 18.322L8.497 19.5ZM15.503 19.5C16.929 18.375 18.753 17.087 20.183 15.476C21.64 13.836 22.75 11.803 22.75 9.137H21.25C21.25 11.335 20.35 13.028 19.062 14.48C17.747 15.96 16.09 17.127 14.574 18.322L15.503 19.5ZM22.75 9.137C22.75 6.425 21.215 4.073 19 3.06C16.736 2.025 13.902 2.444 11.46 4.98L12.54 6.02C14.598 3.883 16.764 3.687 18.376 4.424C20.035 5.183 21.25 6.986 21.25 9.137H22.75ZM14.574 18.322C14.048 18.737 13.579 19.101 13.126 19.365C12.673 19.629 12.31 19.75 12 19.75V21.25C12.69 21.25 13.326 20.985 13.883 20.66C14.441 20.334 14.99 19.904 15.503 19.5L14.574 18.322ZM11.47 6.031L13.47 8.03L14.53 6.97L12.53 4.97L11.47 6.031Z" fill="black"/>
</svg>
