<svg width="15" height="14" viewBox="0 0 15 14" fill="none" xmlns="http://www.w3.org/2000/svg">
<g clip-path="url(#clip0_2648_5646)">
<path d="M4.875 10.5C5.35825 10.5 5.75 10.8918 5.75 11.375C5.75 11.8582 5.35825 12.25 4.875 12.25C4.39175 12.25 4 11.8582 4 11.375C4 10.8918 4.39175 10.5 4.875 10.5Z" stroke="#FCFCFC" stroke-width="1.5"/>
<path d="M10.125 10.5C10.6082 10.5 11 10.8918 11 11.375C11 11.8583 10.6082 12.25 10.125 12.25C9.64175 12.25 9.25 11.8583 9.25 11.375C9.25 10.8918 9.64175 10.5 10.125 10.5Z" stroke="#FEFEFE" stroke-width="1.5"/>
<path d="M1.81839 1.80357L2.06715 1.09603H2.06715L1.81839 1.80357ZM1.91477 1.04246C1.52401 0.90507 1.09586 1.11048 0.958471 1.50124C0.821086 1.89201 1.02649 2.32016 1.41726 2.45754L1.91477 1.04246ZM3.17442 2.52174L3.79365 2.09859L3.79365 2.09859L3.17442 2.52174ZM3.93385 8.5086L3.38959 9.02462H3.38959L3.93385 8.5086ZM12.5497 5.76494L13.2843 5.91634L13.2852 5.91174L12.5497 5.76494ZM12.2582 7.17936L12.9927 7.33076V7.33075L12.2582 7.17936ZM12.5945 3.90663L12 4.36394L12.5945 3.90663ZM11.6606 8.7794L11.1868 8.198V8.198L11.6606 8.7794ZM4.14156 5.69333V4.10571H2.64156V5.69333H4.14156ZM2.06715 1.09603L1.91477 1.04246L1.41726 2.45754L1.56963 2.51112L2.06715 1.09603ZM6.87954 9.79167H9.97289V8.29167H6.87954V9.79167ZM4.14156 4.10571C4.14156 3.70003 4.14258 3.33604 4.11006 3.03562C4.07572 2.71835 3.99808 2.39774 3.79365 2.09859L2.55519 2.94489C2.5679 2.96349 2.59883 3.0128 2.61877 3.19704C2.64054 3.39813 2.64156 3.66724 2.64156 4.10571H4.14156ZM1.56963 2.51112C1.96607 2.6505 2.20145 2.73454 2.36933 2.81691C2.51758 2.88966 2.54469 2.92951 2.55519 2.94489L3.79365 2.09859C3.58702 1.79621 3.31574 1.61045 3.03008 1.47028C2.76403 1.33975 2.42996 1.22359 2.06715 1.09603L1.56963 2.51112ZM2.64156 5.69333C2.64156 6.53303 2.6486 7.17286 2.73395 7.67115C2.82856 8.22354 3.02385 8.63886 3.38959 9.02462L4.47812 7.99258C4.33845 7.84527 4.2626 7.71092 4.21242 7.41792C4.15297 7.07082 4.14156 6.56955 4.14156 5.69333H2.64156ZM6.87954 8.29167C6.04378 8.29167 5.49648 8.2899 5.09145 8.23246C4.71227 8.17869 4.57016 8.08966 4.47812 7.99258L3.38959 9.02462C3.80294 9.46061 4.32025 9.63811 4.88085 9.7176C5.4156 9.79344 6.08844 9.79167 6.87954 9.79167V8.29167ZM3.39156 4.32H10.4678V2.82H3.39156V4.32ZM11.8152 5.61354L11.5236 7.02796L12.9927 7.33075L13.2843 5.91634L11.8152 5.61354ZM10.4678 4.32C10.9732 4.32 11.3934 4.321 11.7193 4.35744C11.8804 4.37545 11.9833 4.39881 12.0425 4.41961C12.1077 4.44251 12.0593 4.44093 12 4.36394L13.1889 3.44933C13.0002 3.20402 12.744 3.0762 12.5398 3.00443C12.3295 2.93055 12.1013 2.89079 11.8859 2.86672C11.459 2.819 10.9454 2.82 10.4678 2.82V4.32ZM13.2852 5.91174C13.3821 5.42616 13.4716 4.98646 13.4937 4.62781C13.5169 4.25282 13.4783 3.82549 13.1889 3.44933L12 4.36394C11.9696 4.3244 12.0099 4.31901 11.9966 4.5354C11.9822 4.76813 11.9198 5.08927 11.8142 5.61813L13.2852 5.91174ZM9.97289 9.79167C10.4094 9.79167 10.8047 9.79298 11.1286 9.75333C11.473 9.71118 11.8229 9.61469 12.1344 9.3608L11.1868 8.198C11.1766 8.20638 11.1378 8.24102 10.9464 8.26444C10.7346 8.29036 10.447 8.29167 9.97289 8.29167V9.79167ZM11.5236 7.02796C11.4279 7.49228 11.3686 7.77375 11.3004 7.97596C11.2389 8.15866 11.1971 8.18962 11.1868 8.198L12.1344 9.3608C12.446 9.10691 12.6111 8.78378 12.7219 8.45498C12.8261 8.1457 12.9046 7.75828 12.9927 7.33076L11.5236 7.02796Z" fill="#FEFEFE"/>
</g>
<defs>
<clipPath id="clip0_2648_5646">
<rect width="14" height="14" fill="white" transform="translate(0.5)"/>
</clipPath>
</defs>
</svg>
