<svg width="21" height="22" viewBox="0 0 21 22" fill="none" xmlns="http://www.w3.org/2000/svg">
<g clip-path="url(#clip0_2253_3927)">
<path d="M13.7006 0.543238C11.0054 0.846809 8.72455 2.83643 8.08869 5.44139C7.99023 5.84342 7.94511 6.09366 7.81383 7.0618C7.60462 8.54274 7.3995 9.3673 7.05491 10.077C6.88261 10.438 6.71852 10.6718 6.31239 11.1395C5.88985 11.6277 5.72986 12.0379 5.73396 12.6327C5.73396 12.8132 5.76678 13.0266 5.8037 13.1332L5.86934 13.3137L4.68788 14.4952L3.51051 15.6725L3.36693 15.5577C2.9526 15.2418 2.54647 15.0941 2.0542 15.0941C0.667615 15.0941 -0.300529 16.4069 0.101497 17.7401C0.294305 18.3801 0.872731 18.9298 1.5332 19.1062C1.64807 19.139 1.87369 19.1636 2.03368 19.1636H2.32905L2.34546 19.5451C2.37007 19.9677 2.44802 20.2302 2.64493 20.542C3.21515 21.4322 4.34738 21.744 5.29502 21.2681C5.98421 20.9235 6.40674 20.2302 6.40674 19.4467C6.40674 18.9544 6.25906 18.5483 5.94318 18.1339L5.82832 17.9904L7.00568 16.813L8.18714 15.6315L8.36354 15.6972C8.47431 15.7341 8.68352 15.7587 8.92146 15.7587C9.5327 15.7587 9.86499 15.6233 10.4229 15.1392C11.0465 14.5977 11.4075 14.3885 12.1213 14.1588C12.794 13.9455 13.3273 13.8388 14.7262 13.646C16.0718 13.4614 16.5435 13.3342 17.3435 12.9404C20.5556 11.3692 21.9012 7.46383 20.3423 4.2107C19.1526 1.7206 16.4574 0.231462 13.7006 0.543238ZM15.5959 1.44164C18.8696 2.13083 20.8797 5.4537 19.9526 8.6535C19.5136 10.1673 18.4019 11.5046 17.003 12.202C16.3302 12.5343 15.8297 12.6656 14.5211 12.8461C11.9613 13.203 10.9111 13.5804 9.86909 14.528C9.51219 14.8521 9.29477 14.9505 8.94197 14.9505C8.42098 14.9505 8.03946 14.6962 7.79332 14.1834L7.63333 13.8429L7.35438 13.7198C6.98107 13.5558 6.83749 13.4245 6.6816 13.1127C6.56263 12.8666 6.55443 12.8255 6.57084 12.5097C6.59135 12.1035 6.64057 11.9969 6.97696 11.6277C7.91639 10.5898 8.30201 9.52729 8.65481 6.97976C8.83531 5.66292 8.92146 5.31833 9.25374 4.60452C9.50809 4.05892 9.83627 3.58715 10.2916 3.11128C11.2146 2.15134 12.31 1.58112 13.6186 1.38011C14.1437 1.30217 15.0626 1.33088 15.5959 1.44164ZM6.5052 14.1834C6.61186 14.2614 6.76775 14.3639 6.85389 14.409C6.95235 14.4583 7.0426 14.5485 7.09183 14.647C7.13695 14.7331 7.23951 14.8931 7.32156 14.9998L7.47334 15.1967L6.13189 16.5422L4.78633 17.8878L4.81095 18.0642C4.82735 18.1955 4.86838 18.2693 4.97094 18.3555C5.49193 18.8067 5.55757 18.9257 5.55757 19.4508C5.55757 19.7708 5.54116 19.8692 5.46731 20.0046C5.24989 20.4148 4.7371 20.7061 4.30226 20.6692C3.81408 20.6281 3.36693 20.2958 3.22335 19.8733C3.09208 19.4836 3.16182 19.0077 3.39975 18.7124C3.6541 18.3965 3.67871 18.1996 3.49 18.0109C3.3013 17.8222 3.10439 17.8468 2.78851 18.1011C2.5957 18.257 2.33315 18.3432 2.0542 18.3432C1.39783 18.3432 0.88914 17.8673 0.831708 17.1986C0.794787 16.7638 1.08605 16.251 1.49628 16.0336C1.63166 15.9597 1.73011 15.9433 2.05009 15.9433C2.57519 15.9433 2.69416 16.0089 3.14541 16.5299C3.23156 16.6325 3.3054 16.6735 3.43667 16.6899L3.61717 16.7145L4.95453 15.3731C5.69294 14.6388 6.30008 14.0357 6.30419 14.0357C6.31239 14.0357 6.40264 14.1014 6.5052 14.1834Z" fill="url(#paint0_linear_2253_3927)"/>
<path d="M13.7537 3.09076C13.6306 3.1482 13.524 3.39023 13.5568 3.52561C13.5937 3.6774 13.7291 3.81277 13.8686 3.84149C14.0204 3.87431 14.2501 3.76765 14.3116 3.63227C14.4757 3.27127 14.1106 2.91847 13.7537 3.09076Z" fill="url(#paint1_linear_2253_3927)"/>
<path d="M11.2928 3.91126C11.1697 3.9728 11.063 4.20663 11.0959 4.35021C11.1369 4.53482 11.2969 4.66199 11.4938 4.66199C11.6292 4.66199 11.6784 4.63737 11.7768 4.52661C11.8425 4.45277 11.8958 4.35021 11.8958 4.29278C11.8958 3.9769 11.5799 3.77179 11.2928 3.91126Z" fill="url(#paint2_linear_2253_3927)"/>
<path d="M18.6775 5.55213C18.5545 5.60956 18.4478 5.8516 18.4806 5.98697C18.5175 6.13876 18.6529 6.27414 18.7924 6.30285C18.9442 6.33567 19.1739 6.22901 19.2354 6.09363C19.3995 5.73263 19.0344 5.37983 18.6775 5.55213Z" fill="url(#paint3_linear_2253_3927)"/>
<path d="M12.1131 6.37263C11.99 6.43416 11.8833 6.668 11.9162 6.81158C11.9572 6.99618 12.1172 7.12335 12.3141 7.12335C12.4495 7.12335 12.4987 7.09874 12.5971 6.98798C12.6628 6.91413 12.7161 6.81158 12.7161 6.75414C12.7161 6.43827 12.4002 6.23315 12.1131 6.37263Z" fill="url(#paint4_linear_2253_3927)"/>
<path d="M18.7201 7.20537C18.5847 7.29973 18.5519 7.37767 18.4657 7.83302C18.1457 9.47805 16.9356 10.7005 15.2536 11.0821C14.8024 11.1805 14.6875 11.2708 14.6875 11.521C14.6875 11.8574 14.9172 11.9764 15.3931 11.8861C17.3048 11.521 18.8513 9.99494 19.2616 8.06686C19.3518 7.64022 19.3436 7.41459 19.2288 7.28742C19.1139 7.15204 18.8513 7.10692 18.7201 7.20537Z" fill="url(#paint5_linear_2253_3927)"/>
</g>
<defs>
<linearGradient id="paint0_linear_2253_3927" x1="0.00976562" y1="10.996" x2="20.9915" y2="10.996" gradientUnits="userSpaceOnUse">
<stop stop-color="#996300"/>
<stop offset="0.95" stop-color="#FFA600"/>
</linearGradient>
<linearGradient id="paint1_linear_2253_3927" x1="13.5508" y1="3.44661" x2="14.3521" y2="3.44661" gradientUnits="userSpaceOnUse">
<stop stop-color="#996300"/>
<stop offset="0.95" stop-color="#FFA600"/>
</linearGradient>
<linearGradient id="paint2_linear_2253_3927" x1="11.0898" y1="4.26437" x2="11.8958" y2="4.26437" gradientUnits="userSpaceOnUse">
<stop stop-color="#996300"/>
<stop offset="0.95" stop-color="#FFA600"/>
</linearGradient>
<linearGradient id="paint3_linear_2253_3927" x1="18.4746" y1="5.90798" x2="19.2759" y2="5.90798" gradientUnits="userSpaceOnUse">
<stop stop-color="#996300"/>
<stop offset="0.95" stop-color="#FFA600"/>
</linearGradient>
<linearGradient id="paint4_linear_2253_3927" x1="11.9102" y1="6.72573" x2="12.7161" y2="6.72573" gradientUnits="userSpaceOnUse">
<stop stop-color="#996300"/>
<stop offset="0.95" stop-color="#FFA600"/>
</linearGradient>
<linearGradient id="paint5_linear_2253_3927" x1="14.6875" y1="9.53379" x2="19.3229" y2="9.53379" gradientUnits="userSpaceOnUse">
<stop stop-color="#996300"/>
<stop offset="0.95" stop-color="#FFA600"/>
</linearGradient>
<clipPath id="clip0_2253_3927">
<rect width="21.0038" height="21.0038" fill="white" transform="translate(0 0.498108)"/>
</clipPath>
</defs>
</svg>
