<svg width="20" height="20" viewBox="0 0 20 20" fill="none" xmlns="http://www.w3.org/2000/svg">
<g clip-path="url(#clip0_2253_3960)">
<path d="M6.95513 0.0448971C6.09983 0.150345 5.08831 0.435446 4.91256 0.619003C4.69776 0.845522 4.69385 1.20483 4.90475 1.41963C5.01801 1.52898 5.07269 1.55242 5.56868 1.70082C6.09202 1.85704 6.55287 2.1109 6.89655 2.43115C7.15041 2.66938 7.52924 3.15367 7.49018 3.18881C7.48237 3.19662 7.25585 3.26302 6.99028 3.33722C6.72471 3.41143 6.3654 3.52469 6.19356 3.59499C4.44 4.28626 2.25683 6.17651 1.22578 7.89102C-0.519971 10.8006 -0.379373 14.0656 1.60461 16.7565C2.4521 17.9047 3.81903 19.174 4.94771 19.8652C5.17032 20.0019 5.18595 20.0058 5.47495 19.9824C6.59583 19.9043 7.48237 19.1505 7.77919 18.0219C7.89635 17.5766 7.91979 16.8619 7.83777 16.2683C7.75966 15.7254 7.68936 15.5575 7.47847 15.4403C7.27929 15.3232 7.19337 15.3271 6.77548 15.4677C6.12326 15.6903 5.71709 15.7567 4.98286 15.7567C4.24472 15.7606 3.89323 15.6981 3.35427 15.4677C2.7333 15.2021 2.04203 14.6163 1.63195 14.0031L1.4523 13.7375L1.5929 13.5188C1.98735 12.9018 2.61223 12.23 3.13557 11.8629C3.4441 11.6442 3.94791 11.4021 4.2994 11.3005C4.49858 11.2458 4.69385 11.2302 5.19766 11.2302C5.9397 11.2302 5.97485 11.238 7.04496 11.6247C7.42769 11.7614 8.08772 11.9801 8.50951 12.105C12.7938 13.386 16.4806 13.5852 19.0153 12.6713C19.6441 12.4448 19.8081 12.3472 19.9213 12.1402L20.0151 11.9605L19.9448 11.5231C19.8667 11.0193 19.6597 10.1601 19.4878 9.59381C19.0934 8.32062 18.4295 7.04743 17.6444 6.07497C17.3047 5.65318 16.5353 4.91894 16.133 4.63384C15.1567 3.93086 14.0436 3.43095 12.8915 3.16929L12.5204 3.08337L12.3759 2.81389C12.1611 2.41553 11.6964 1.82189 11.3215 1.46259C10.5794 0.747885 9.74755 0.310471 8.73213 0.099575C8.36111 0.0214653 7.37302 -0.00977898 6.95513 0.0448971ZM8.73213 1.30637C9.45464 1.49383 10.0366 1.8297 10.5911 2.38038C11.1301 2.91934 11.1731 2.87638 10.0873 2.90762C9.57962 2.92324 9.06409 2.94667 8.94693 2.9623L8.73213 2.98964L8.55638 2.6772C8.45874 2.50535 8.31815 2.27884 8.24785 2.17729C8.10725 1.9703 7.65031 1.49383 7.40426 1.29465L7.24804 1.16968L7.79481 1.18921C8.20489 1.20092 8.43922 1.23217 8.73213 1.30637ZM11.6612 4.13785C11.8136 4.16128 12.1299 4.21596 12.372 4.26282L12.8095 4.34484L12.4111 4.72758C11.6222 5.48133 11.1457 6.32492 10.9153 7.38331C10.802 7.89493 10.8098 9.12125 10.9309 9.72269C11.0364 10.2343 11.2316 10.9061 11.4035 11.3239C11.4699 11.4841 11.5167 11.6247 11.505 11.6325C11.4816 11.6559 10.7669 11.4997 10.0209 11.3083C9.08362 11.0662 8.27519 10.8162 7.34177 10.4843C6.32244 10.125 5.89284 10.0312 5.21719 10.0273C4.6587 10.0273 4.21738 10.0937 3.72529 10.2617C2.92467 10.5272 2.08889 11.0896 1.45621 11.7848L1.18673 12.0777L1.20235 11.8473C1.32342 9.92187 2.07718 8.31281 3.55736 6.83654C4.26816 6.12574 5.39684 5.27044 6.08421 4.92675C6.95123 4.49325 8.10334 4.20815 9.4937 4.08708C9.80223 4.05974 11.38 4.09879 11.6612 4.13785ZM14.4849 4.99705C15.9963 5.75862 17.2617 7.18413 18.0077 8.97284C18.2928 9.6563 18.6872 10.992 18.7185 11.3942C18.7302 11.5231 18.7224 11.5348 18.574 11.5895C17.293 12.0465 15.2191 12.1871 13.3055 11.9371L12.9579 11.8941L12.786 11.5544C12.4267 10.8436 12.126 9.88672 12.0284 9.1564C11.9659 8.67602 12.0049 7.84025 12.1065 7.42236C12.2861 6.70375 12.7899 5.91484 13.3875 5.41885C13.6218 5.21967 14.1295 4.84865 14.1725 4.84474C14.1764 4.84474 14.317 4.91504 14.4849 4.99705ZM3.45581 16.7409C3.99477 16.901 4.55716 16.9635 5.21719 16.9361C5.71709 16.9166 6.3615 16.8268 6.6466 16.7369C6.7169 16.7135 6.7208 16.7369 6.7208 17.0377C6.7169 18.0023 6.33025 18.6272 5.63117 18.7834C5.47886 18.8186 5.45933 18.8108 5.15861 18.596C4.63918 18.2249 4.03383 17.7016 3.51049 17.1705C3.03402 16.694 2.92857 16.5573 3.08089 16.6198C3.11604 16.6354 3.28788 16.6901 3.45581 16.7409Z" fill="url(#paint0_linear_2253_3960)"/>
<path d="M15.3663 7.61759C15.2686 7.66836 15.1749 7.75428 15.1241 7.84801C14.843 8.34792 15.3819 8.90249 15.8935 8.64083C16.081 8.5471 16.1786 8.39869 16.1982 8.17607C16.2216 7.92222 16.12 7.74257 15.8974 7.6254C15.6865 7.51995 15.5733 7.51605 15.3663 7.61759Z" fill="url(#paint1_linear_2253_3960)"/>
</g>
<defs>
<linearGradient id="paint0_linear_2253_3960" x1="10.0124" y1="19.9933" x2="10.0124" y2="0.0173817" gradientUnits="userSpaceOnUse">
<stop stop-color="#47B9FF"/>
<stop offset="1" stop-color="#A2B7FF"/>
</linearGradient>
<linearGradient id="paint1_linear_2253_3960" x1="15.6242" y1="8.70789" x2="15.6242" y2="7.54381" gradientUnits="userSpaceOnUse">
<stop stop-color="#47B9FF"/>
<stop offset="1" stop-color="#A2B7FF"/>
</linearGradient>
<clipPath id="clip0_2253_3960">
<rect width="19.9961" height="19.9961" fill="white" transform="translate(0.00390625 0.00195312)"/>
</clipPath>
</defs>
</svg>
