<svg width="20" height="20" viewBox="0 0 20 20" fill="none" xmlns="http://www.w3.org/2000/svg">
<g clip-path="url(#clip0_2253_3938)">
<path d="M14.4542 3.08594C13.6144 3.16407 13.0753 3.33985 11.7706 3.94922C10.7472 4.4336 10.0636 4.67579 9.34092 4.82032C8.49327 4.98829 8.06749 5.01172 6.25499 4.98047C4.42686 4.94922 4.12217 4.96875 3.37999 5.15625C2.01671 5.5 1.16905 6.29297 0.817487 7.5586C0.735456 7.85938 0.73155 7.95313 0.715925 9.78516C0.7003 12.2852 0.73155 12.5742 1.1378 13.4297C2.29796 15.8672 5.04796 17.1172 8.80577 16.918C10.298 16.8398 11.3526 16.6602 12.4073 16.3086C14.1534 15.7266 15.7081 14.7695 17.0011 13.4805C18.2159 12.2617 18.9855 10.9766 19.2276 9.7461C19.2706 9.53516 19.2823 9.02344 19.2823 7.5C19.2823 5.6836 19.2745 5.50391 19.2081 5.25391C18.9386 4.25782 18.1612 3.57813 16.9659 3.28125C16.2862 3.11329 15.1144 3.02344 14.4542 3.08594ZM16.1847 3.69532C17.0948 3.82032 17.6808 4.05469 18.1261 4.47266C18.9073 5.21094 18.9503 6.36719 18.2472 7.77344C16.9737 10.3125 13.8175 12.5313 10.7394 13.043C8.78233 13.3711 6.86827 13.332 5.37608 12.9414C3.69249 12.5 2.37999 11.5313 1.70811 10.2344C1.26671 9.38672 1.15342 8.4961 1.37608 7.625C1.60655 6.71094 2.31749 6.03125 3.36827 5.71875C3.98155 5.53516 4.10655 5.52735 6.09483 5.53907C8.04796 5.55079 8.5167 5.53125 9.30186 5.38672C10.2081 5.22657 10.8253 5.00782 12.0753 4.41407C13.212 3.8711 13.7003 3.71094 14.4581 3.63282C14.8644 3.59375 15.6261 3.61719 16.1847 3.69532ZM18.7433 8.86719C18.7159 9.77735 18.6222 10.1563 18.2315 10.9297C17.4698 12.4453 15.923 13.9531 14.0792 14.9766C12.337 15.9492 10.505 16.3789 8.11046 16.3789C5.62608 16.3789 3.83311 15.7813 2.58311 14.5313C2.15342 14.1016 1.86827 13.7031 1.62608 13.1914C1.33702 12.582 1.24327 12.0508 1.2628 11.1367L1.27452 10.6094L1.47764 10.9219C2.79796 12.9531 5.37999 13.9688 8.79795 13.793C10.6769 13.6953 11.9815 13.418 13.3839 12.8164C15.5362 11.8906 17.5206 10.1836 18.5519 8.3711C18.673 8.16016 18.7394 8.07032 18.7511 8.11719C18.7589 8.15235 18.755 8.49219 18.7433 8.86719Z" fill="url(#paint0_linear_2253_3938)"/>
<path d="M15.5318 5.16016C15.1256 5.3125 14.7662 5.46094 14.7428 5.49609C14.6607 5.60547 14.6803 5.80859 14.7779 5.875C14.8248 5.91016 14.8951 5.9375 14.9342 5.9375C15.0435 5.9375 16.5396 5.39453 16.6139 5.32422C16.7037 5.24219 16.7037 5.03125 16.6139 4.94922C16.4967 4.83984 16.3092 4.87891 15.5318 5.16016Z" fill="url(#paint1_linear_2253_3938)"/>
<path d="M11.6852 5.66406C11.607 5.74219 11.5836 5.91797 11.6383 6.00391C11.6539 6.03125 11.7828 6.125 11.9195 6.21484L12.1695 6.375L11.2555 6.70312L10.3414 7.03125L9.79453 6.67969C9.18906 6.28906 9.07968 6.26172 8.93906 6.45312C8.80625 6.63281 8.86875 6.73438 9.28281 7C9.48593 7.13281 9.6539 7.25 9.6539 7.26172C9.6539 7.30469 7.93125 7.89844 7.86484 7.87891C7.82578 7.87109 7.32578 7.55859 6.74375 7.1875C6.00547 6.71484 5.6539 6.51172 5.57578 6.51172C5.36093 6.50781 5.24375 6.78125 5.38828 6.94141C5.42343 6.98438 5.72031 7.1875 6.04062 7.39062C7.22812 8.14453 7.2125 8.13281 7.15 8.16406C7.11875 8.18359 6.64609 8.35547 6.10312 8.55078C5.29062 8.84375 5.10312 8.89844 5.03671 8.86328C4.99375 8.83984 4.81015 8.72656 4.63437 8.60938C4.28671 8.38281 4.1539 8.35156 4.0289 8.47656C3.86093 8.64453 3.95468 8.84375 4.30234 9.05078C4.36875 9.08594 4.41953 9.12891 4.41953 9.14062C4.41953 9.15234 4.14218 9.25781 3.80625 9.37891C3.12265 9.62109 3.00156 9.70703 3.07578 9.91016C3.09531 9.96875 3.15781 10.043 3.2125 10.0742C3.31015 10.1289 3.36484 10.1133 4.15781 9.83203C4.61875 9.66797 5.01328 9.53125 5.0289 9.53125C5.09922 9.53125 6.29843 10.3242 6.26718 10.3516C6.25156 10.3672 5.92734 10.4922 5.55234 10.625C4.84531 10.875 4.69296 10.9648 4.69296 11.1211C4.69296 11.2227 4.85312 11.4062 4.94296 11.4062C4.97421 11.4062 5.41562 11.2578 5.92343 11.0742C6.43125 10.8906 6.86875 10.7422 6.9 10.7422C6.93125 10.7422 7.41172 11.0312 7.9664 11.3867C8.52109 11.7422 9.01328 12.0312 9.06015 12.0312C9.20078 12.0312 9.31015 11.8906 9.29453 11.7266C9.28281 11.5859 9.27109 11.5742 8.43515 11.0352C7.93125 10.7148 7.60312 10.4805 7.63437 10.4648C7.65781 10.4531 8.13437 10.2773 8.68515 10.082L9.68906 9.71875L10.357 10.1445C10.7203 10.375 11.0211 10.5781 11.0211 10.5898C11.0211 10.6016 10.8531 10.668 10.65 10.7383C10.4469 10.8086 10.2594 10.8906 10.2359 10.9258C10.107 11.0781 10.2359 11.3672 10.4312 11.3672C10.4859 11.3672 10.7828 11.2773 11.0875 11.168L11.6422 10.9648L11.9234 11.1484C12.0797 11.2461 12.2398 11.3281 12.2789 11.3281C12.3844 11.3281 12.5445 11.1523 12.5445 11.0391C12.5445 10.9844 12.4977 10.8984 12.4273 10.8359L12.3141 10.7266L12.6734 10.5977C13.1578 10.4258 13.2633 10.2891 13.0875 10.0625C13.0406 10.0039 12.9703 9.96094 12.9156 9.96094C12.8648 9.96094 12.5797 10.0469 12.2789 10.1562C11.9781 10.2617 11.7242 10.3516 11.7125 10.3516C11.6734 10.3516 10.3961 9.52344 10.3961 9.49609C10.3961 9.48047 10.7086 9.35938 11.0914 9.22266C11.4703 9.08594 11.8648 8.94141 11.9664 8.90234L12.1461 8.83203L13.2125 9.51172C13.7984 9.88672 14.3062 10.1953 14.3453 10.1953C14.3805 10.1953 14.4547 10.1602 14.5133 10.1133C14.6344 10.0195 14.65 9.83984 14.5445 9.73438C14.5055 9.69922 14.1031 9.42969 13.65 9.14062C13.1656 8.83203 12.8414 8.60547 12.8687 8.58984C12.9508 8.54297 14.5758 7.96875 14.6187 7.96875C14.6461 7.96875 14.9664 8.16016 15.3375 8.39844C16.0406 8.84766 16.1773 8.89844 16.3062 8.75781C16.4 8.65234 16.3883 8.46484 16.2867 8.37109C16.2359 8.32812 16.0094 8.17578 15.775 8.02734C15.5445 7.88281 15.3492 7.75 15.3375 7.73438C15.3258 7.71875 15.7008 7.56641 16.1695 7.39844C17.025 7.08984 17.193 6.99609 17.193 6.83594C17.193 6.73828 17.0289 6.5625 16.9352 6.5625C16.9 6.5625 16.3844 6.73828 15.7828 6.95312L14.6969 7.34375L14.0719 6.94141C13.7242 6.72266 13.443 6.53125 13.443 6.51562C13.443 6.50391 13.5797 6.44531 13.7516 6.38672C13.9195 6.33203 14.0875 6.25391 14.1227 6.21484C14.2672 6.05859 14.15 5.76953 13.943 5.76953C13.8922 5.76953 13.6187 5.85547 13.3375 5.95703L12.8219 6.14062L12.3844 5.86328C12.1422 5.71094 11.9039 5.58594 11.8531 5.58594C11.8023 5.58594 11.7281 5.62109 11.6852 5.66406ZM13.4117 7.16797C13.7477 7.38281 14.0133 7.57031 13.9977 7.58203C13.982 7.59766 13.5758 7.75 13.0953 7.92188L12.2203 8.23047L11.5758 7.82031C11.2203 7.59375 10.9469 7.40234 10.9664 7.39453C10.9859 7.38672 11.3805 7.24219 11.8414 7.07031C12.3023 6.90234 12.7086 6.76562 12.7398 6.76953C12.7711 6.77344 13.0758 6.95312 13.4117 7.16797ZM10.9312 8.05078C11.2711 8.26953 11.5523 8.45312 11.5602 8.45703C11.568 8.46484 10.6187 8.8125 9.98593 9.03125L9.75156 9.11328L9.11875 8.70703C8.77109 8.48438 8.49375 8.29297 8.50547 8.28516C8.53672 8.25391 10.1773 7.66406 10.2477 7.66016C10.2828 7.65625 10.5914 7.83594 10.9312 8.05078ZM8.51328 8.96484C8.81797 9.15625 9.06797 9.32812 9.06797 9.33984C9.06797 9.35156 8.59922 9.53125 8.025 9.73828L6.98203 10.1133L6.39609 9.73828C6.07187 9.53125 5.78281 9.34375 5.75937 9.32031C5.72422 9.28516 5.84531 9.22656 6.24765 9.08203C6.54062 8.97656 7.01328 8.80859 7.29062 8.70703C7.70859 8.55859 7.81406 8.53516 7.88047 8.57031C7.92343 8.59375 8.20859 8.76953 8.51328 8.96484Z" fill="url(#paint2_linear_2253_3938)"/>
<path d="M2.67386 7.55859C2.56058 7.63672 2.52542 7.80078 2.59964 7.91016C2.68948 8.04688 3.21292 8.35938 3.35354 8.35938C3.50198 8.35938 3.59964 8.25391 3.59964 8.09375C3.59964 7.96094 3.51761 7.88281 3.11526 7.64062C2.85745 7.48438 2.79495 7.47266 2.67386 7.55859Z" fill="url(#paint3_linear_2253_3938)"/>
<path d="M12.0162 14.4375C11.6725 14.5547 11.3678 14.6797 11.3404 14.7187C11.2623 14.8203 11.2975 15 11.4186 15.0898L11.5201 15.1641L11.8756 15.0625C12.4068 14.9102 12.8522 14.7305 12.8951 14.6484C12.9654 14.5195 12.9381 14.3867 12.8326 14.3008C12.774 14.2539 12.7076 14.2227 12.6842 14.2227C12.6607 14.2266 12.36 14.3242 12.0162 14.4375Z" fill="url(#paint4_linear_2253_3938)"/>
<path d="M6.14084 15.0352C6.02756 15.1485 6.03538 15.3242 6.15647 15.4219C6.28147 15.5235 6.9885 15.6563 7.62522 15.6992C8.54319 15.7656 10.2307 15.6055 10.4729 15.4336C10.6174 15.3281 10.6291 15.1055 10.4924 15.0156C10.3948 14.9531 10.3635 14.9531 9.83616 15.043C9.34788 15.125 9.16038 15.1367 8.26584 15.1367C7.44163 15.1367 7.17991 15.125 6.87913 15.0664C6.24631 14.9414 6.23459 14.9414 6.14084 15.0352Z" fill="url(#paint5_linear_2253_3938)"/>
</g>
<defs>
<linearGradient id="paint0_linear_2253_3938" x1="9.99761" y1="16.9386" x2="9.99761" y2="3.06602" gradientUnits="userSpaceOnUse">
<stop stop-color="#E83333"/>
<stop offset="1" stop-color="#821D1D"/>
</linearGradient>
<linearGradient id="paint1_linear_2253_3938" x1="15.6863" y1="5.9375" x2="15.6863" y2="4.8928" gradientUnits="userSpaceOnUse">
<stop stop-color="#E83333"/>
<stop offset="1" stop-color="#821D1D"/>
</linearGradient>
<linearGradient id="paint2_linear_2253_3938" x1="10.1248" y1="12.0312" x2="10.1248" y2="5.58594" gradientUnits="userSpaceOnUse">
<stop stop-color="#E83333"/>
<stop offset="1" stop-color="#821D1D"/>
</linearGradient>
<linearGradient id="paint3_linear_2253_3938" x1="3.08009" y1="8.35938" x2="3.08009" y2="7.50534" gradientUnits="userSpaceOnUse">
<stop stop-color="#E83333"/>
<stop offset="1" stop-color="#821D1D"/>
</linearGradient>
<linearGradient id="paint4_linear_2253_3938" x1="12.1164" y1="15.1641" x2="12.1164" y2="14.2227" gradientUnits="userSpaceOnUse">
<stop stop-color="#E83333"/>
<stop offset="1" stop-color="#821D1D"/>
</linearGradient>
<linearGradient id="paint5_linear_2253_3938" x1="8.32449" y1="15.7146" x2="8.32449" y2="14.9684" gradientUnits="userSpaceOnUse">
<stop stop-color="#E83333"/>
<stop offset="1" stop-color="#821D1D"/>
</linearGradient>
<clipPath id="clip0_2253_3938">
<rect width="20" height="20" fill="white" transform="translate(0.00390625)"/>
</clipPath>
</defs>
</svg>
