<svg width="20" height="20" viewBox="0 0 20 20" fill="none" xmlns="http://www.w3.org/2000/svg">
<path d="M0.480881 3.83203C0.273849 3.89453 0.0902555 4.10938 0.051193 4.32422C0.00431802 4.59766 0.019943 6.39062 0.0746305 6.91406C0.441818 10.4961 1.83244 13.1016 4.13713 14.5312C5.00041 15.0664 6.16447 15.543 7.22697 15.8008C8.35979 16.0703 9.17619 16.1719 10.5082 16.1953L11.5824 16.2188L8.62541 13.2539C6.00822 10.6289 5.66838 10.2773 5.64494 10.1445C5.60197 9.92188 5.65666 9.72656 5.79729 9.58594C5.91447 9.46875 6.16447 9.36328 6.26213 9.39453C6.28947 9.40234 6.36369 9.41797 6.42619 9.43359C6.51604 9.45312 7.26604 10.1797 9.48088 12.3906C12.3168 15.2266 12.4184 15.3242 12.4457 15.2148C12.4613 15.1523 12.4613 14.7344 12.4457 14.2812C12.3403 10.8945 11.3988 8.27344 9.66447 6.53516C8.24651 5.12109 6.18401 4.23438 3.47697 3.88281C2.9301 3.80859 0.66838 3.77344 0.480881 3.83203Z" fill="#205B2A"/>
<path d="M17.8535 7.5C15.8965 7.65234 14.2129 8.32812 13.1699 9.39062L12.9199 9.64453L13.0605 10.1445C13.291 10.9453 13.459 11.7734 13.5371 12.4609C13.5488 12.5781 13.5684 12.7422 13.5801 12.8242L13.6035 12.9766L14.4316 12.1562C14.8848 11.7031 15.3066 11.3125 15.3691 11.293C15.4277 11.2695 15.5527 11.25 15.6426 11.25C16.084 11.25 16.377 11.7812 16.1387 12.1562C16.0957 12.2266 15.5215 12.8203 14.8652 13.4766L13.6738 14.668V15C13.6738 15.3359 13.623 15.8711 13.5723 16.0703L13.5488 16.1758L13.7559 16.1484C14.2168 16.0937 15.002 15.9336 15.3848 15.8203C17.9473 15.0586 19.3691 13.3555 19.8652 10.457C20.0215 9.53906 20.0449 8.12891 19.9082 7.83984C19.8145 7.65234 19.666 7.54687 19.4121 7.5C19.1855 7.45703 18.4238 7.45703 17.8535 7.5Z" fill="#45C55B"/>
</svg>
